<mxfile host="Electron" agent="Mozilla/5.0 (X11; Linux x86_64) AppleWebKit/537.36 (KHTML, like Gecko) draw.io/27.0.5 Chrome/134.0.6998.205 Electron/35.3.0 Safari/537.36" version="27.0.5">
  <diagram name="Страница — 1" id="Q1-yE4wdHoYkO8aqZpEo">
    <mxGraphModel dx="1376" dy="843" grid="1" gridSize="10" guides="1" tooltips="1" connect="1" arrows="1" fold="1" page="1" pageScale="1" pageWidth="827" pageHeight="1169" math="0" shadow="0">
      <root>
        <mxCell id="0" />
        <mxCell id="1" parent="0" />
        <mxCell id="npFlk3cG1vyQBKou53__-33" style="edgeStyle=orthogonalEdgeStyle;rounded=0;orthogonalLoop=1;jettySize=auto;html=1;" edge="1" parent="1" source="npFlk3cG1vyQBKou53__-1" target="npFlk3cG1vyQBKou53__-12">
          <mxGeometry relative="1" as="geometry" />
        </mxCell>
        <mxCell id="npFlk3cG1vyQBKou53__-1" value="Начало" style="strokeWidth=2;html=1;shape=mxgraph.flowchart.start_1;whiteSpace=wrap;" vertex="1" parent="1">
          <mxGeometry x="214" y="10" width="100" height="60" as="geometry" />
        </mxCell>
        <mxCell id="npFlk3cG1vyQBKou53__-4" value="Полученное слово" style="text;html=1;align=left;verticalAlign=middle;whiteSpace=wrap;rounded=0;" vertex="1" parent="1">
          <mxGeometry x="480" y="50" width="130" height="30" as="geometry" />
        </mxCell>
        <mxCell id="npFlk3cG1vyQBKou53__-5" value="Начальное слово" style="text;html=1;align=left;verticalAlign=middle;whiteSpace=wrap;rounded=0;" vertex="1" parent="1">
          <mxGeometry x="480" y="20" width="130" height="30" as="geometry" />
        </mxCell>
        <mxCell id="npFlk3cG1vyQBKou53__-18" style="edgeStyle=orthogonalEdgeStyle;rounded=0;orthogonalLoop=1;jettySize=auto;html=1;exitX=0.5;exitY=1;exitDx=0;exitDy=0;entryX=0.5;entryY=0;entryDx=0;entryDy=0;" edge="1" parent="1" source="npFlk3cG1vyQBKou53__-8" target="npFlk3cG1vyQBKou53__-15">
          <mxGeometry relative="1" as="geometry" />
        </mxCell>
        <mxCell id="npFlk3cG1vyQBKou53__-8" value="Вывод:&lt;br&gt;Полученное слово&lt;div&gt;(на первой итерации -&lt;/div&gt;&lt;div&gt;Пустое слово)&lt;/div&gt;" style="shape=parallelogram;html=1;strokeWidth=2;perimeter=parallelogramPerimeter;whiteSpace=wrap;rounded=1;arcSize=12;size=0.23;" vertex="1" parent="1">
          <mxGeometry x="168" y="410" width="192" height="60" as="geometry" />
        </mxCell>
        <mxCell id="npFlk3cG1vyQBKou53__-9" value="Ввод:&lt;br&gt;Да / Нет" style="shape=parallelogram;html=1;strokeWidth=2;perimeter=parallelogramPerimeter;whiteSpace=wrap;rounded=1;arcSize=12;size=0.23;" vertex="1" parent="1">
          <mxGeometry x="168" y="180" width="192" height="50" as="geometry" />
        </mxCell>
        <mxCell id="npFlk3cG1vyQBKou53__-29" style="edgeStyle=orthogonalEdgeStyle;rounded=0;orthogonalLoop=1;jettySize=auto;html=1;entryX=0.5;entryY=0;entryDx=0;entryDy=0;" edge="1" parent="1" source="npFlk3cG1vyQBKou53__-10" target="npFlk3cG1vyQBKou53__-13">
          <mxGeometry relative="1" as="geometry" />
        </mxCell>
        <mxCell id="npFlk3cG1vyQBKou53__-10" value="Начать игру?" style="strokeWidth=2;html=1;shape=mxgraph.flowchart.decision;whiteSpace=wrap;" vertex="1" parent="1">
          <mxGeometry x="178" y="250" width="172" height="60" as="geometry" />
        </mxCell>
        <mxCell id="npFlk3cG1vyQBKou53__-32" style="edgeStyle=orthogonalEdgeStyle;rounded=0;orthogonalLoop=1;jettySize=auto;html=1;" edge="1" parent="1" source="npFlk3cG1vyQBKou53__-12" target="npFlk3cG1vyQBKou53__-9">
          <mxGeometry relative="1" as="geometry" />
        </mxCell>
        <mxCell id="npFlk3cG1vyQBKou53__-12" value="Загрузить&lt;div&gt;Список&amp;nbsp;&lt;span style=&quot;background-color: transparent; color: light-dark(rgb(0, 0, 0), rgb(255, 255, 255));&quot;&gt;слов&lt;/span&gt;&lt;/div&gt;" style="strokeWidth=2;html=1;shape=mxgraph.flowchart.direct_data;whiteSpace=wrap;" vertex="1" parent="1">
          <mxGeometry x="188" y="90" width="152" height="60" as="geometry" />
        </mxCell>
        <mxCell id="npFlk3cG1vyQBKou53__-28" style="edgeStyle=orthogonalEdgeStyle;rounded=0;orthogonalLoop=1;jettySize=auto;html=1;entryX=0.5;entryY=0;entryDx=0;entryDy=0;" edge="1" parent="1" source="npFlk3cG1vyQBKou53__-13" target="npFlk3cG1vyQBKou53__-8">
          <mxGeometry relative="1" as="geometry" />
        </mxCell>
        <mxCell id="npFlk3cG1vyQBKou53__-13" value="- Получить из Списка слов&lt;div&gt;Начальное слово&lt;/div&gt;&lt;div&gt;- Создать Карту букв Слова и их Индексов&lt;/div&gt;" style="rounded=1;whiteSpace=wrap;html=1;absoluteArcSize=1;arcSize=14;strokeWidth=2;" vertex="1" parent="1">
          <mxGeometry x="168" y="330" width="192" height="60" as="geometry" />
        </mxCell>
        <mxCell id="npFlk3cG1vyQBKou53__-21" style="edgeStyle=orthogonalEdgeStyle;rounded=0;orthogonalLoop=1;jettySize=auto;html=1;" edge="1" parent="1" source="npFlk3cG1vyQBKou53__-15" target="npFlk3cG1vyQBKou53__-16">
          <mxGeometry relative="1" as="geometry" />
        </mxCell>
        <mxCell id="npFlk3cG1vyQBKou53__-15" value="Ввод:&lt;br&gt;Буква слова" style="shape=parallelogram;html=1;strokeWidth=2;perimeter=parallelogramPerimeter;whiteSpace=wrap;rounded=1;arcSize=12;size=0.23;" vertex="1" parent="1">
          <mxGeometry x="168" y="490" width="192" height="50" as="geometry" />
        </mxCell>
        <mxCell id="npFlk3cG1vyQBKou53__-23" style="edgeStyle=orthogonalEdgeStyle;rounded=0;orthogonalLoop=1;jettySize=auto;html=1;" edge="1" parent="1" source="npFlk3cG1vyQBKou53__-16">
          <mxGeometry relative="1" as="geometry">
            <mxPoint x="264" y="480" as="targetPoint" />
            <Array as="points">
              <mxPoint x="150" y="595" />
              <mxPoint x="150" y="480" />
            </Array>
          </mxGeometry>
        </mxCell>
        <mxCell id="npFlk3cG1vyQBKou53__-16" value="Есть ли буква&lt;div&gt;в Полученном&lt;/div&gt;&lt;div&gt;слове?&lt;/div&gt;" style="strokeWidth=2;html=1;shape=mxgraph.flowchart.decision;whiteSpace=wrap;" vertex="1" parent="1">
          <mxGeometry x="178" y="564.5" width="172" height="60" as="geometry" />
        </mxCell>
        <mxCell id="npFlk3cG1vyQBKou53__-38" style="edgeStyle=orthogonalEdgeStyle;rounded=0;orthogonalLoop=1;jettySize=auto;html=1;exitX=0;exitY=0.5;exitDx=0;exitDy=0;exitPerimeter=0;" edge="1" parent="1" source="npFlk3cG1vyQBKou53__-17" target="npFlk3cG1vyQBKou53__-36">
          <mxGeometry relative="1" as="geometry" />
        </mxCell>
        <mxCell id="npFlk3cG1vyQBKou53__-42" style="edgeStyle=orthogonalEdgeStyle;rounded=0;orthogonalLoop=1;jettySize=auto;html=1;exitX=1;exitY=0.5;exitDx=0;exitDy=0;exitPerimeter=0;" edge="1" parent="1" source="npFlk3cG1vyQBKou53__-17" target="npFlk3cG1vyQBKou53__-41">
          <mxGeometry relative="1" as="geometry" />
        </mxCell>
        <mxCell id="npFlk3cG1vyQBKou53__-17" value="Есть ли буква&lt;div&gt;в Отгадываемом&lt;/div&gt;&lt;div&gt;слове?&lt;/div&gt;" style="strokeWidth=2;html=1;shape=mxgraph.flowchart.decision;whiteSpace=wrap;" vertex="1" parent="1">
          <mxGeometry x="178" y="650" width="172" height="60" as="geometry" />
        </mxCell>
        <mxCell id="npFlk3cG1vyQBKou53__-25" value="Да" style="text;html=1;align=center;verticalAlign=middle;whiteSpace=wrap;rounded=0;" vertex="1" parent="1">
          <mxGeometry x="150" y="565" width="38" height="30" as="geometry" />
        </mxCell>
        <mxCell id="npFlk3cG1vyQBKou53__-26" style="edgeStyle=orthogonalEdgeStyle;rounded=0;orthogonalLoop=1;jettySize=auto;html=1;entryX=0.5;entryY=0;entryDx=0;entryDy=0;entryPerimeter=0;" edge="1" parent="1" source="npFlk3cG1vyQBKou53__-16" target="npFlk3cG1vyQBKou53__-17">
          <mxGeometry relative="1" as="geometry" />
        </mxCell>
        <mxCell id="npFlk3cG1vyQBKou53__-27" value="Нет" style="text;html=1;align=center;verticalAlign=middle;whiteSpace=wrap;rounded=0;" vertex="1" parent="1">
          <mxGeometry x="225" y="620" width="38" height="30" as="geometry" />
        </mxCell>
        <mxCell id="npFlk3cG1vyQBKou53__-30" value="Да" style="text;html=1;align=center;verticalAlign=middle;whiteSpace=wrap;rounded=0;" vertex="1" parent="1">
          <mxGeometry x="225" y="300" width="38" height="30" as="geometry" />
        </mxCell>
        <mxCell id="npFlk3cG1vyQBKou53__-31" style="edgeStyle=orthogonalEdgeStyle;rounded=0;orthogonalLoop=1;jettySize=auto;html=1;entryX=0.5;entryY=0;entryDx=0;entryDy=0;entryPerimeter=0;" edge="1" parent="1" source="npFlk3cG1vyQBKou53__-9" target="npFlk3cG1vyQBKou53__-10">
          <mxGeometry relative="1" as="geometry" />
        </mxCell>
        <mxCell id="npFlk3cG1vyQBKou53__-40" style="edgeStyle=orthogonalEdgeStyle;rounded=0;orthogonalLoop=1;jettySize=auto;html=1;" edge="1" parent="1" source="npFlk3cG1vyQBKou53__-48">
          <mxGeometry relative="1" as="geometry">
            <mxPoint x="260" y="400" as="targetPoint" />
            <Array as="points">
              <mxPoint x="40" y="855" />
              <mxPoint x="40" y="400" />
            </Array>
          </mxGeometry>
        </mxCell>
        <mxCell id="npFlk3cG1vyQBKou53__-49" style="edgeStyle=orthogonalEdgeStyle;rounded=0;orthogonalLoop=1;jettySize=auto;html=1;" edge="1" parent="1" source="npFlk3cG1vyQBKou53__-36" target="npFlk3cG1vyQBKou53__-48">
          <mxGeometry relative="1" as="geometry" />
        </mxCell>
        <mxCell id="npFlk3cG1vyQBKou53__-36" value="- Добавить Букву в&lt;div&gt;Полученное слово&lt;div&gt;- Удалить Букву из&lt;/div&gt;&lt;div&gt;Карты букв с индексами&lt;/div&gt;&lt;/div&gt;" style="rounded=1;whiteSpace=wrap;html=1;absoluteArcSize=1;arcSize=14;strokeWidth=2;" vertex="1" parent="1">
          <mxGeometry x="60" y="740" width="192" height="60" as="geometry" />
        </mxCell>
        <mxCell id="npFlk3cG1vyQBKou53__-39" value="Да" style="text;html=1;align=center;verticalAlign=middle;whiteSpace=wrap;rounded=0;" vertex="1" parent="1">
          <mxGeometry x="150" y="650" width="38" height="30" as="geometry" />
        </mxCell>
        <mxCell id="npFlk3cG1vyQBKou53__-46" style="edgeStyle=orthogonalEdgeStyle;rounded=0;orthogonalLoop=1;jettySize=auto;html=1;" edge="1" parent="1" source="npFlk3cG1vyQBKou53__-41" target="npFlk3cG1vyQBKou53__-45">
          <mxGeometry relative="1" as="geometry" />
        </mxCell>
        <mxCell id="npFlk3cG1vyQBKou53__-41" value="- Добавить Уровень ошибки" style="rounded=1;whiteSpace=wrap;html=1;absoluteArcSize=1;arcSize=14;strokeWidth=2;" vertex="1" parent="1">
          <mxGeometry x="280" y="740" width="192" height="60" as="geometry" />
        </mxCell>
        <mxCell id="npFlk3cG1vyQBKou53__-43" value="Нет" style="text;html=1;align=center;verticalAlign=middle;whiteSpace=wrap;rounded=0;" vertex="1" parent="1">
          <mxGeometry x="340" y="650" width="38" height="30" as="geometry" />
        </mxCell>
        <mxCell id="npFlk3cG1vyQBKou53__-47" style="edgeStyle=orthogonalEdgeStyle;rounded=0;orthogonalLoop=1;jettySize=auto;html=1;exitX=1;exitY=0.5;exitDx=0;exitDy=0;exitPerimeter=0;" edge="1" parent="1" source="npFlk3cG1vyQBKou53__-51">
          <mxGeometry relative="1" as="geometry">
            <mxPoint x="270" y="400" as="targetPoint" />
            <Array as="points">
              <mxPoint x="490" y="940" />
              <mxPoint x="490" y="400" />
            </Array>
          </mxGeometry>
        </mxCell>
        <mxCell id="npFlk3cG1vyQBKou53__-52" style="edgeStyle=orthogonalEdgeStyle;rounded=0;orthogonalLoop=1;jettySize=auto;html=1;" edge="1" parent="1" source="npFlk3cG1vyQBKou53__-45" target="npFlk3cG1vyQBKou53__-51">
          <mxGeometry relative="1" as="geometry" />
        </mxCell>
        <mxCell id="npFlk3cG1vyQBKou53__-45" value="Вывод:&lt;br&gt;Виселица по&lt;div&gt;Уровню ошибки&lt;/div&gt;" style="shape=parallelogram;html=1;strokeWidth=2;perimeter=parallelogramPerimeter;whiteSpace=wrap;rounded=1;arcSize=12;size=0.23;" vertex="1" parent="1">
          <mxGeometry x="280" y="830" width="192" height="50" as="geometry" />
        </mxCell>
        <mxCell id="npFlk3cG1vyQBKou53__-57" style="edgeStyle=orthogonalEdgeStyle;rounded=0;orthogonalLoop=1;jettySize=auto;html=1;entryX=0.5;entryY=0;entryDx=0;entryDy=0;" edge="1" parent="1" source="npFlk3cG1vyQBKou53__-48" target="npFlk3cG1vyQBKou53__-54">
          <mxGeometry relative="1" as="geometry" />
        </mxCell>
        <mxCell id="npFlk3cG1vyQBKou53__-48" value="Пустая ли&lt;div&gt;Карта букв с индексами?&lt;/div&gt;" style="strokeWidth=2;html=1;shape=mxgraph.flowchart.decision;whiteSpace=wrap;" vertex="1" parent="1">
          <mxGeometry x="70" y="825" width="172" height="60" as="geometry" />
        </mxCell>
        <mxCell id="npFlk3cG1vyQBKou53__-50" value="Нет" style="text;html=1;align=center;verticalAlign=middle;whiteSpace=wrap;rounded=0;" vertex="1" parent="1">
          <mxGeometry x="40" y="825" width="38" height="30" as="geometry" />
        </mxCell>
        <mxCell id="npFlk3cG1vyQBKou53__-59" style="edgeStyle=orthogonalEdgeStyle;rounded=0;orthogonalLoop=1;jettySize=auto;html=1;" edge="1" parent="1" source="npFlk3cG1vyQBKou53__-51" target="npFlk3cG1vyQBKou53__-53">
          <mxGeometry relative="1" as="geometry" />
        </mxCell>
        <mxCell id="npFlk3cG1vyQBKou53__-51" value="Максимальный ли&lt;br&gt;&lt;div&gt;Уровень ошибки?&lt;/div&gt;" style="strokeWidth=2;html=1;shape=mxgraph.flowchart.decision;whiteSpace=wrap;" vertex="1" parent="1">
          <mxGeometry x="290" y="910" width="172" height="60" as="geometry" />
        </mxCell>
        <mxCell id="npFlk3cG1vyQBKou53__-53" value="Вывод:&lt;br&gt;Вы проиграли" style="shape=parallelogram;html=1;strokeWidth=2;perimeter=parallelogramPerimeter;whiteSpace=wrap;rounded=1;arcSize=12;size=0.23;" vertex="1" parent="1">
          <mxGeometry x="280" y="990" width="192" height="30" as="geometry" />
        </mxCell>
        <mxCell id="npFlk3cG1vyQBKou53__-54" value="Вывод:&lt;br&gt;Вы выиграли" style="shape=parallelogram;html=1;strokeWidth=2;perimeter=parallelogramPerimeter;whiteSpace=wrap;rounded=1;arcSize=12;size=0.23;" vertex="1" parent="1">
          <mxGeometry x="60" y="990" width="192" height="30" as="geometry" />
        </mxCell>
        <mxCell id="npFlk3cG1vyQBKou53__-62" style="edgeStyle=orthogonalEdgeStyle;rounded=0;orthogonalLoop=1;jettySize=auto;html=1;" edge="1" parent="1" source="npFlk3cG1vyQBKou53__-55" target="npFlk3cG1vyQBKou53__-56">
          <mxGeometry relative="1" as="geometry" />
        </mxCell>
        <mxCell id="npFlk3cG1vyQBKou53__-55" value="Вывод:&lt;br&gt;Начальное слово" style="shape=parallelogram;html=1;strokeWidth=2;perimeter=parallelogramPerimeter;whiteSpace=wrap;rounded=1;arcSize=12;size=0.23;" vertex="1" parent="1">
          <mxGeometry x="168" y="1040" width="192" height="30" as="geometry" />
        </mxCell>
        <mxCell id="npFlk3cG1vyQBKou53__-56" value="Конец" style="strokeWidth=2;html=1;shape=mxgraph.flowchart.start_1;whiteSpace=wrap;" vertex="1" parent="1">
          <mxGeometry x="214" y="1090" width="100" height="60" as="geometry" />
        </mxCell>
        <mxCell id="npFlk3cG1vyQBKou53__-58" value="Да" style="text;html=1;align=center;verticalAlign=middle;whiteSpace=wrap;rounded=0;" vertex="1" parent="1">
          <mxGeometry x="120" y="885" width="38" height="30" as="geometry" />
        </mxCell>
        <mxCell id="npFlk3cG1vyQBKou53__-60" style="edgeStyle=orthogonalEdgeStyle;rounded=0;orthogonalLoop=1;jettySize=auto;html=1;exitX=0.5;exitY=1;exitDx=0;exitDy=0;entryX=0.454;entryY=-0.022;entryDx=0;entryDy=0;entryPerimeter=0;" edge="1" parent="1" source="npFlk3cG1vyQBKou53__-54" target="npFlk3cG1vyQBKou53__-55">
          <mxGeometry relative="1" as="geometry">
            <mxPoint x="270" y="1010" as="targetPoint" />
            <Array as="points">
              <mxPoint x="156" y="1030" />
              <mxPoint x="255" y="1030" />
              <mxPoint x="255" y="1039" />
            </Array>
          </mxGeometry>
        </mxCell>
        <mxCell id="npFlk3cG1vyQBKou53__-61" style="edgeStyle=orthogonalEdgeStyle;rounded=0;orthogonalLoop=1;jettySize=auto;html=1;" edge="1" parent="1" source="npFlk3cG1vyQBKou53__-53">
          <mxGeometry relative="1" as="geometry">
            <mxPoint x="300" y="1040" as="targetPoint" />
            <Array as="points">
              <mxPoint x="370" y="1030" />
              <mxPoint x="300" y="1030" />
              <mxPoint x="300" y="1040" />
            </Array>
          </mxGeometry>
        </mxCell>
      </root>
    </mxGraphModel>
  </diagram>
</mxfile>
